<mxfile host="app.diagrams.net" modified="2021-06-22T02:37:10.522Z" agent="5.0 (Macintosh; Intel Mac OS X 10_15_7) AppleWebKit/537.36 (KHTML, like Gecko) Chrome/90.0.4430.212 Safari/537.36" etag="_AIESL3BYGYKPEGLSp9v" version="14.8.0" type="github">
  <diagram id="XfqwJtEXAJnuoEytfdIk" name="Page-1">
    <mxGraphModel dx="1426" dy="699" grid="1" gridSize="10" guides="1" tooltips="1" connect="1" arrows="1" fold="1" page="1" pageScale="1" pageWidth="827" pageHeight="1169" math="0" shadow="0">
      <root>
        <mxCell id="0" />
        <mxCell id="1" parent="0" />
        <mxCell id="MyryO2pPzwR74cKFDhDH-1" value="t_switch_battery_task" style="shape=table;startSize=30;container=1;collapsible=1;childLayout=tableLayout;fixedRows=1;rowLines=0;fontStyle=1;align=center;resizeLast=1;" vertex="1" parent="1">
          <mxGeometry x="140" y="130" width="320" height="250" as="geometry" />
        </mxCell>
        <mxCell id="MyryO2pPzwR74cKFDhDH-2" value="" style="shape=partialRectangle;collapsible=0;dropTarget=0;pointerEvents=0;fillColor=none;top=0;left=0;bottom=1;right=0;points=[[0,0.5],[1,0.5]];portConstraint=eastwest;" vertex="1" parent="MyryO2pPzwR74cKFDhDH-1">
          <mxGeometry y="30" width="320" height="30" as="geometry" />
        </mxCell>
        <mxCell id="MyryO2pPzwR74cKFDhDH-3" value="PK" style="shape=partialRectangle;connectable=0;fillColor=none;top=0;left=0;bottom=0;right=0;fontStyle=1;overflow=hidden;" vertex="1" parent="MyryO2pPzwR74cKFDhDH-2">
          <mxGeometry width="30" height="30" as="geometry" />
        </mxCell>
        <mxCell id="MyryO2pPzwR74cKFDhDH-4" value="id" style="shape=partialRectangle;connectable=0;fillColor=none;top=0;left=0;bottom=0;right=0;align=left;spacingLeft=6;fontStyle=5;overflow=hidden;" vertex="1" parent="MyryO2pPzwR74cKFDhDH-2">
          <mxGeometry x="30" width="290" height="30" as="geometry" />
        </mxCell>
        <mxCell id="MyryO2pPzwR74cKFDhDH-5" value="" style="shape=partialRectangle;collapsible=0;dropTarget=0;pointerEvents=0;fillColor=none;top=0;left=0;bottom=0;right=0;points=[[0,0.5],[1,0.5]];portConstraint=eastwest;" vertex="1" parent="MyryO2pPzwR74cKFDhDH-1">
          <mxGeometry y="60" width="320" height="30" as="geometry" />
        </mxCell>
        <mxCell id="MyryO2pPzwR74cKFDhDH-6" value="" style="shape=partialRectangle;connectable=0;fillColor=none;top=0;left=0;bottom=0;right=0;editable=1;overflow=hidden;" vertex="1" parent="MyryO2pPzwR74cKFDhDH-5">
          <mxGeometry width="30" height="30" as="geometry" />
        </mxCell>
        <mxCell id="MyryO2pPzwR74cKFDhDH-7" value="bike_no" style="shape=partialRectangle;connectable=0;fillColor=none;top=0;left=0;bottom=0;right=0;align=left;spacingLeft=6;overflow=hidden;fontSize=13;" vertex="1" parent="MyryO2pPzwR74cKFDhDH-5">
          <mxGeometry x="30" width="290" height="30" as="geometry" />
        </mxCell>
        <mxCell id="MyryO2pPzwR74cKFDhDH-8" value="" style="shape=partialRectangle;collapsible=0;dropTarget=0;pointerEvents=0;fillColor=none;top=0;left=0;bottom=0;right=0;points=[[0,0.5],[1,0.5]];portConstraint=eastwest;" vertex="1" parent="MyryO2pPzwR74cKFDhDH-1">
          <mxGeometry y="90" width="320" height="30" as="geometry" />
        </mxCell>
        <mxCell id="MyryO2pPzwR74cKFDhDH-9" value="" style="shape=partialRectangle;connectable=0;fillColor=none;top=0;left=0;bottom=0;right=0;editable=1;overflow=hidden;" vertex="1" parent="MyryO2pPzwR74cKFDhDH-8">
          <mxGeometry width="30" height="30" as="geometry" />
        </mxCell>
        <mxCell id="MyryO2pPzwR74cKFDhDH-10" value="Row 2" style="shape=partialRectangle;connectable=0;fillColor=none;top=0;left=0;bottom=0;right=0;align=left;spacingLeft=6;overflow=hidden;" vertex="1" parent="MyryO2pPzwR74cKFDhDH-8">
          <mxGeometry x="30" width="290" height="30" as="geometry" />
        </mxCell>
        <mxCell id="MyryO2pPzwR74cKFDhDH-11" value="" style="shape=partialRectangle;collapsible=0;dropTarget=0;pointerEvents=0;fillColor=none;top=0;left=0;bottom=0;right=0;points=[[0,0.5],[1,0.5]];portConstraint=eastwest;" vertex="1" parent="MyryO2pPzwR74cKFDhDH-1">
          <mxGeometry y="120" width="320" height="30" as="geometry" />
        </mxCell>
        <mxCell id="MyryO2pPzwR74cKFDhDH-12" value="" style="shape=partialRectangle;connectable=0;fillColor=none;top=0;left=0;bottom=0;right=0;editable=1;overflow=hidden;" vertex="1" parent="MyryO2pPzwR74cKFDhDH-11">
          <mxGeometry width="30" height="30" as="geometry" />
        </mxCell>
        <mxCell id="MyryO2pPzwR74cKFDhDH-13" value="Row 3" style="shape=partialRectangle;connectable=0;fillColor=none;top=0;left=0;bottom=0;right=0;align=left;spacingLeft=6;overflow=hidden;" vertex="1" parent="MyryO2pPzwR74cKFDhDH-11">
          <mxGeometry x="30" width="290" height="30" as="geometry" />
        </mxCell>
      </root>
    </mxGraphModel>
  </diagram>
</mxfile>
